/vscmnt/brussel_pixiu_data/_data_brussel/112/vsc11236/PredSimResults/SUBJ11opt3D/weighted-expIG/worker_04.mot
version=1
nRows=4
nColumns=50
inDegrees=yes
endheader
                time	         pelvis_tilt	         pelvis_list	     pelvis_rotation	           pelvis_tx	           pelvis_ty	           pelvis_tz	       hip_flexion_r	     hip_adduction_r	      hip_rotation_r	        knee_angle_r	       ankle_angle_r	         mtp_angle_r	       hip_flexion_l	     hip_adduction_l	      hip_rotation_l	        knee_angle_l	       ankle_angle_l	         mtp_angle_l	    lumbar_extension	      lumbar_bending	     lumbar_rotation	 ercspn_r/activation	 intobl_r/activation	 extobl_r/activation	    abd_r/activation	    add_r/activation	hamstrings_r/activation	bifemsh_r/activation	glut_max_r/activation	iliopsoas_r/activation	rect_fem_r/activation	  vasti_r/activation	gastroc_r/activation	 soleus_r/activation	tib_ant_r/activation	 ercspn_l/activation	 intobl_l/activation	 extobl_l/activation	    abd_l/activation	    add_l/activation	hamstrings_l/activation	bifemsh_l/activation	glut_max_l/activation	iliopsoas_l/activation	rect_fem_l/activation	  vasti_l/activation	gastroc_l/activation	 soleus_l/activation	tib_ant_l/activation	
          0.72419716	         -2.69124736	          1.46993099	         -7.21429810	          0.73143913	          0.94098590	          0.00436772	        -13.39212795	         -3.54328967	         -0.77637802	        -13.42102570	         12.68734292	         30.71442778	         30.84622599	         -1.29802233	         -4.06128634	        -10.50476829	          1.29036179	          0.25427442	        -13.75469655	          2.31706180	          3.36045530	          0.01000000	          0.00999999	          0.00999999	          0.03659890	          0.02419646	          0.03078579	          0.25250473	          0.02948198	          0.22514314	          0.01000000	          0.00999999	          0.15043322	          0.33380303	          0.01181465	          0.02479346	          0.21803591	          0.06086265	          0.00999999	          0.24841161	          0.03393994	          0.08897636	          0.07617645	          0.10464448	          0.04168445	          0.01845372	          0.00999999	          0.00999999	          0.41074714	
          0.73868110	         -2.85207598	          1.56404885	         -7.21586207	          0.75088112	          0.93868005	          0.00276570	        -13.75886796	         -3.85557383	         -1.25658827	        -14.53779765	         11.86338382	         32.68081788	         30.54715473	         -1.02592817	         -4.25105725	        -11.65404693	          0.82589875	          0.20890312	        -13.20322312	          1.75390309	          3.58296172	          0.01426357	          0.00999999	          0.01000000	          0.02948198	          0.04259804	          0.03821750	          0.21768865	          0.02374899	          0.18136244	          0.00999999	          0.00999999	          0.12118039	          0.30913875	          0.00999999	          0.01997219	          0.18731987	          0.04902747	          0.02035749	          0.20010617	          0.05252779	          0.07167426	          0.11554232	          0.08429560	          0.03357861	          0.01486526	          0.01241398	          0.01241398	          0.46309958	
          0.75316504	         -2.99086396	          1.66397776	         -7.18650029	          0.77058460	          0.93675560	          0.00107708	        -13.91886621	         -4.18453890	         -1.75563415	        -16.05590815	         10.84256472	         34.75546791	         30.18536610	         -0.76228442	         -4.48475510	        -12.73167990	          0.12215056	          0.20063852	        -12.63625974	          1.17833424	          3.79466212	          0.02275593	          0.00999999	          0.00999999	          0.02374899	          0.03431454	          0.03753750	          0.17535752	          0.01913083	          0.17076961	          0.00999999	          0.00999999	          0.09761598	          0.28062695	          0.00999999	          0.02189356	          0.15089416	          0.03949372	          0.06256942	          0.22718064	          0.05511165	          0.05773668	          0.12210714	          0.06790371	          0.02704901	          0.01652486	          0.00999999	          0.00999999	          0.53818537	
          0.76764899	         -3.10819594	          1.75450607	         -7.12222882	          0.79019223	          0.93540682	         -0.00070532	        -13.78412641	         -4.51674703	         -2.26673400	        -18.07607630	          9.57799578	         36.91006184	         29.90026803	         -0.52372355	         -4.79326114	        -13.94104011	         -0.64284059	          0.15857296	        -12.09733706	          0.60932378	          3.99016758	          0.04862541	          0.00999999	          0.00999999	          0.01913083	          0.08175410	          0.04149034	          0.14125799	          0.01541070	          0.13756223	          0.00999999	          0.00999999	          0.07863385	          0.23751409	          0.00999999	          0.02957341	          0.12155170	          0.03181388	          0.09848614	          0.25898582	          0.06255459	          0.04650937	          0.10511059	          0.05469934	          0.02178913	          0.11552605	          0.00999999	          0.00999999	          0.59797433	
